<mxfile host="app.diagrams.net" modified="2024-01-14T23:07:00.088Z" agent="Mozilla/5.0 (Macintosh; Intel Mac OS X 10.15; rv:121.0) Gecko/20100101 Firefox/121.0" etag="Tesn0VGemjQG4Fu2ViW4" version="22.1.17" type="device" pages="4">
  <diagram name="InteractiveGreeting_problem" id="SinEylF_8jw9aDq7C9AI">
    <mxGraphModel dx="1050" dy="575" grid="1" gridSize="10" guides="1" tooltips="1" connect="1" arrows="1" fold="1" page="1" pageScale="1" pageWidth="827" pageHeight="1169" math="0" shadow="0">
      <root>
        <mxCell id="0" />
        <mxCell id="1" parent="0" />
        <mxCell id="LoH9O_h8A9xtLUZKqWc1-2" style="edgeStyle=orthogonalEdgeStyle;rounded=0;orthogonalLoop=1;jettySize=auto;html=1;endSize=12;endArrow=open;endFill=0;exitX=0.5;exitY=1;exitDx=0;exitDy=0;" parent="1" source="LoH9O_h8A9xtLUZKqWc1-1" target="LoH9O_h8A9xtLUZKqWc1-3" edge="1">
          <mxGeometry relative="1" as="geometry">
            <mxPoint x="410" y="440" as="targetPoint" />
            <Array as="points">
              <mxPoint x="420" y="370" />
              <mxPoint x="420" y="370" />
            </Array>
          </mxGeometry>
        </mxCell>
        <mxCell id="LoH9O_h8A9xtLUZKqWc1-1" value="InteractiveGreeting" style="rounded=0;whiteSpace=wrap;html=1;" parent="1" vertex="1">
          <mxGeometry x="360" y="320" width="120" height="40" as="geometry" />
        </mxCell>
        <mxCell id="LoH9O_h8A9xtLUZKqWc1-5" value="" style="edgeStyle=orthogonalEdgeStyle;rounded=0;orthogonalLoop=1;jettySize=auto;html=1;endSize=12;endArrow=open;endFill=0;" parent="1" source="LoH9O_h8A9xtLUZKqWc1-3" target="LoH9O_h8A9xtLUZKqWc1-4" edge="1">
          <mxGeometry relative="1" as="geometry">
            <Array as="points">
              <mxPoint x="420" y="460" />
              <mxPoint x="420" y="460" />
            </Array>
          </mxGeometry>
        </mxCell>
        <mxCell id="LoH9O_h8A9xtLUZKqWc1-3" value="PersonInfo" style="rounded=0;whiteSpace=wrap;html=1;" parent="1" vertex="1">
          <mxGeometry x="360" y="400" width="120" height="40" as="geometry" />
        </mxCell>
        <mxCell id="LoH9O_h8A9xtLUZKqWc1-4" value="&lt;div&gt;Stdin/Stdout&lt;/div&gt;(external resources)" style="rounded=0;whiteSpace=wrap;html=1;fillColor=#ffe6cc;strokeColor=#d79b00;" parent="1" vertex="1">
          <mxGeometry x="360" y="480" width="120" height="40" as="geometry" />
        </mxCell>
        <mxCell id="LoH9O_h8A9xtLUZKqWc1-9" style="edgeStyle=orthogonalEdgeStyle;rounded=0;orthogonalLoop=1;jettySize=auto;html=1;entryX=0.25;entryY=0;entryDx=0;entryDy=0;endArrow=open;endFill=0;endSize=12;" parent="1" source="LoH9O_h8A9xtLUZKqWc1-6" target="LoH9O_h8A9xtLUZKqWc1-1" edge="1">
          <mxGeometry relative="1" as="geometry">
            <Array as="points">
              <mxPoint x="320" y="280" />
              <mxPoint x="390" y="280" />
            </Array>
          </mxGeometry>
        </mxCell>
        <mxCell id="LoH9O_h8A9xtLUZKqWc1-6" value="Main" style="rounded=0;whiteSpace=wrap;html=1;" parent="1" vertex="1">
          <mxGeometry x="280" y="220" width="80" height="40" as="geometry" />
        </mxCell>
        <mxCell id="LoH9O_h8A9xtLUZKqWc1-8" style="edgeStyle=orthogonalEdgeStyle;rounded=0;orthogonalLoop=1;jettySize=auto;html=1;entryX=0.75;entryY=0;entryDx=0;entryDy=0;endArrow=open;endFill=0;endSize=12;fillColor=#f8cecc;strokeColor=#b85450;" parent="1" source="LoH9O_h8A9xtLUZKqWc1-7" target="LoH9O_h8A9xtLUZKqWc1-1" edge="1">
          <mxGeometry relative="1" as="geometry">
            <Array as="points">
              <mxPoint x="520" y="280" />
              <mxPoint x="450" y="280" />
            </Array>
          </mxGeometry>
        </mxCell>
        <mxCell id="LoH9O_h8A9xtLUZKqWc1-10" value="&lt;div&gt;Doesn&#39;t work!&lt;/div&gt;" style="edgeLabel;html=1;align=center;verticalAlign=middle;resizable=0;points=[];" parent="LoH9O_h8A9xtLUZKqWc1-8" vertex="1" connectable="0">
          <mxGeometry x="-0.1411" relative="1" as="geometry">
            <mxPoint x="6" y="10" as="offset" />
          </mxGeometry>
        </mxCell>
        <mxCell id="LoH9O_h8A9xtLUZKqWc1-7" value="Tests" style="rounded=0;whiteSpace=wrap;html=1;" parent="1" vertex="1">
          <mxGeometry x="480" y="220" width="80" height="40" as="geometry" />
        </mxCell>
      </root>
    </mxGraphModel>
  </diagram>
  <diagram id="swS04D958zH1dZBND8Qv" name="InteractiveGreeting_solution-1">
    <mxGraphModel dx="1050" dy="575" grid="1" gridSize="10" guides="1" tooltips="1" connect="1" arrows="1" fold="1" page="1" pageScale="1" pageWidth="827" pageHeight="1169" math="0" shadow="0">
      <root>
        <mxCell id="0" />
        <mxCell id="1" parent="0" />
        <mxCell id="Hmg7gfmz6oi_PZ23hMe0-1" style="edgeStyle=orthogonalEdgeStyle;rounded=0;orthogonalLoop=1;jettySize=auto;html=1;endSize=12;endArrow=open;endFill=0;" parent="1" source="Hmg7gfmz6oi_PZ23hMe0-2" target="Hmg7gfmz6oi_PZ23hMe0-4" edge="1">
          <mxGeometry relative="1" as="geometry">
            <mxPoint x="410" y="440" as="targetPoint" />
            <Array as="points">
              <mxPoint x="420" y="380" />
              <mxPoint x="420" y="380" />
            </Array>
          </mxGeometry>
        </mxCell>
        <mxCell id="Hmg7gfmz6oi_PZ23hMe0-2" value="InteractiveGreeting" style="rounded=0;whiteSpace=wrap;html=1;" parent="1" vertex="1">
          <mxGeometry x="360" y="320" width="120" height="40" as="geometry" />
        </mxCell>
        <mxCell id="Hmg7gfmz6oi_PZ23hMe0-3" value="" style="edgeStyle=orthogonalEdgeStyle;rounded=0;orthogonalLoop=1;jettySize=auto;html=1;endSize=12;endArrow=open;endFill=0;entryX=0.5;entryY=0;entryDx=0;entryDy=0;" parent="1" source="Hmg7gfmz6oi_PZ23hMe0-4" target="Hmg7gfmz6oi_PZ23hMe0-11" edge="1">
          <mxGeometry relative="1" as="geometry">
            <mxPoint x="330" y="480" as="targetPoint" />
            <Array as="points">
              <mxPoint x="420" y="470" />
              <mxPoint x="420" y="470" />
            </Array>
          </mxGeometry>
        </mxCell>
        <mxCell id="Hmg7gfmz6oi_PZ23hMe0-4" value="PersonInfo" style="rounded=0;whiteSpace=wrap;html=1;" parent="1" vertex="1">
          <mxGeometry x="360" y="400" width="120" height="40" as="geometry" />
        </mxCell>
        <mxCell id="Hmg7gfmz6oi_PZ23hMe0-13" style="edgeStyle=orthogonalEdgeStyle;rounded=0;orthogonalLoop=1;jettySize=auto;html=1;entryX=0.25;entryY=1;entryDx=0;entryDy=0;endArrow=block;endFill=0;endSize=12;exitX=0.75;exitY=0;exitDx=0;exitDy=0;" parent="1" source="Hmg7gfmz6oi_PZ23hMe0-5" target="Hmg7gfmz6oi_PZ23hMe0-11" edge="1">
          <mxGeometry relative="1" as="geometry" />
        </mxCell>
        <mxCell id="Hmg7gfmz6oi_PZ23hMe0-5" value="&lt;div&gt;Stdin/Stdout&lt;/div&gt;(external resources)" style="rounded=0;whiteSpace=wrap;html=1;fillColor=#ffe6cc;strokeColor=#d79b00;" parent="1" vertex="1">
          <mxGeometry x="260" y="560" width="120" height="40" as="geometry" />
        </mxCell>
        <mxCell id="Hmg7gfmz6oi_PZ23hMe0-6" style="edgeStyle=orthogonalEdgeStyle;rounded=0;orthogonalLoop=1;jettySize=auto;html=1;entryX=0.25;entryY=0;entryDx=0;entryDy=0;endArrow=open;endFill=0;endSize=12;exitX=0.75;exitY=1;exitDx=0;exitDy=0;" parent="1" source="Hmg7gfmz6oi_PZ23hMe0-7" target="Hmg7gfmz6oi_PZ23hMe0-2" edge="1">
          <mxGeometry relative="1" as="geometry">
            <Array as="points">
              <mxPoint x="340" y="280" />
              <mxPoint x="390" y="280" />
            </Array>
          </mxGeometry>
        </mxCell>
        <mxCell id="Hmg7gfmz6oi_PZ23hMe0-12" style="edgeStyle=orthogonalEdgeStyle;rounded=0;orthogonalLoop=1;jettySize=auto;html=1;entryX=0.5;entryY=0;entryDx=0;entryDy=0;endArrow=open;endFill=0;endSize=12;" parent="1" source="Hmg7gfmz6oi_PZ23hMe0-7" target="Hmg7gfmz6oi_PZ23hMe0-5" edge="1">
          <mxGeometry relative="1" as="geometry" />
        </mxCell>
        <mxCell id="Hmg7gfmz6oi_PZ23hMe0-7" value="Main" style="rounded=0;whiteSpace=wrap;html=1;" parent="1" vertex="1">
          <mxGeometry x="280" y="220" width="80" height="40" as="geometry" />
        </mxCell>
        <mxCell id="Hmg7gfmz6oi_PZ23hMe0-8" style="edgeStyle=orthogonalEdgeStyle;rounded=0;orthogonalLoop=1;jettySize=auto;html=1;entryX=0.75;entryY=0;entryDx=0;entryDy=0;endArrow=open;endFill=0;endSize=12;fillColor=#f8cecc;strokeColor=default;exitX=0.25;exitY=1;exitDx=0;exitDy=0;" parent="1" source="Hmg7gfmz6oi_PZ23hMe0-10" target="Hmg7gfmz6oi_PZ23hMe0-2" edge="1">
          <mxGeometry relative="1" as="geometry">
            <Array as="points">
              <mxPoint x="500" y="280" />
              <mxPoint x="450" y="280" />
            </Array>
          </mxGeometry>
        </mxCell>
        <mxCell id="Hmg7gfmz6oi_PZ23hMe0-9" value="works!" style="edgeLabel;html=1;align=center;verticalAlign=middle;resizable=0;points=[];" parent="Hmg7gfmz6oi_PZ23hMe0-8" vertex="1" connectable="0">
          <mxGeometry x="-0.1411" relative="1" as="geometry">
            <mxPoint x="6" y="10" as="offset" />
          </mxGeometry>
        </mxCell>
        <mxCell id="Hmg7gfmz6oi_PZ23hMe0-16" style="edgeStyle=orthogonalEdgeStyle;rounded=0;orthogonalLoop=1;jettySize=auto;html=1;entryX=0.5;entryY=0;entryDx=0;entryDy=0;endArrow=open;endFill=0;endSize=12;exitX=0.5;exitY=1;exitDx=0;exitDy=0;" parent="1" source="Hmg7gfmz6oi_PZ23hMe0-10" target="Hmg7gfmz6oi_PZ23hMe0-14" edge="1">
          <mxGeometry relative="1" as="geometry" />
        </mxCell>
        <mxCell id="Hmg7gfmz6oi_PZ23hMe0-10" value="Tests" style="rounded=0;whiteSpace=wrap;html=1;" parent="1" vertex="1">
          <mxGeometry x="480" y="220" width="80" height="40" as="geometry" />
        </mxCell>
        <mxCell id="Hmg7gfmz6oi_PZ23hMe0-11" value="in/out interface" style="rounded=0;whiteSpace=wrap;html=1;" parent="1" vertex="1">
          <mxGeometry x="360" y="480" width="120" height="40" as="geometry" />
        </mxCell>
        <mxCell id="Hmg7gfmz6oi_PZ23hMe0-15" style="edgeStyle=orthogonalEdgeStyle;rounded=0;orthogonalLoop=1;jettySize=auto;html=1;entryX=0.75;entryY=1;entryDx=0;entryDy=0;endSize=12;endArrow=block;endFill=0;exitX=0.25;exitY=0;exitDx=0;exitDy=0;" parent="1" source="Hmg7gfmz6oi_PZ23hMe0-14" target="Hmg7gfmz6oi_PZ23hMe0-11" edge="1">
          <mxGeometry relative="1" as="geometry" />
        </mxCell>
        <mxCell id="Hmg7gfmz6oi_PZ23hMe0-14" value="Strings" style="rounded=0;whiteSpace=wrap;html=1;" parent="1" vertex="1">
          <mxGeometry x="460" y="560" width="120" height="40" as="geometry" />
        </mxCell>
      </root>
    </mxGraphModel>
  </diagram>
  <diagram id="as6nHnUlGd4Np3Qvtk3d" name="InteractiveGreeting_solution-2">
    <mxGraphModel dx="1050" dy="575" grid="1" gridSize="10" guides="1" tooltips="1" connect="1" arrows="1" fold="1" page="1" pageScale="1" pageWidth="827" pageHeight="1169" math="0" shadow="0">
      <root>
        <mxCell id="0" />
        <mxCell id="1" parent="0" />
        <mxCell id="ABU-pIYIKaxsOQF3MxnG-1" style="edgeStyle=orthogonalEdgeStyle;rounded=0;orthogonalLoop=1;jettySize=auto;html=1;endSize=12;endArrow=open;endFill=0;entryX=0.5;entryY=0;entryDx=0;entryDy=0;" parent="1" source="ABU-pIYIKaxsOQF3MxnG-2" target="ABU-pIYIKaxsOQF3MxnG-14" edge="1">
          <mxGeometry relative="1" as="geometry">
            <mxPoint x="420.0344827586207" y="400" as="targetPoint" />
            <Array as="points" />
          </mxGeometry>
        </mxCell>
        <mxCell id="ABU-pIYIKaxsOQF3MxnG-2" value="InteractiveGreeting" style="rounded=0;whiteSpace=wrap;html=1;" parent="1" vertex="1">
          <mxGeometry x="360" y="320" width="120" height="40" as="geometry" />
        </mxCell>
        <mxCell id="ABU-pIYIKaxsOQF3MxnG-5" style="edgeStyle=orthogonalEdgeStyle;rounded=0;orthogonalLoop=1;jettySize=auto;html=1;entryX=0.25;entryY=1;entryDx=0;entryDy=0;endArrow=block;endFill=0;endSize=12;exitX=0.75;exitY=0;exitDx=0;exitDy=0;" parent="1" source="ABU-pIYIKaxsOQF3MxnG-6" target="ABU-pIYIKaxsOQF3MxnG-14" edge="1">
          <mxGeometry relative="1" as="geometry" />
        </mxCell>
        <mxCell id="ABU-pIYIKaxsOQF3MxnG-6" value="InteractivePersonInfo" style="rounded=0;whiteSpace=wrap;html=1;fillColor=#ffe6cc;strokeColor=#d79b00;" parent="1" vertex="1">
          <mxGeometry x="240" y="480" width="160" height="40" as="geometry" />
        </mxCell>
        <mxCell id="ABU-pIYIKaxsOQF3MxnG-7" style="edgeStyle=orthogonalEdgeStyle;rounded=0;orthogonalLoop=1;jettySize=auto;html=1;entryX=0.25;entryY=0;entryDx=0;entryDy=0;endArrow=open;endFill=0;endSize=12;exitX=0.75;exitY=1;exitDx=0;exitDy=0;" parent="1" source="ABU-pIYIKaxsOQF3MxnG-9" target="ABU-pIYIKaxsOQF3MxnG-2" edge="1">
          <mxGeometry relative="1" as="geometry">
            <Array as="points">
              <mxPoint x="340" y="280" />
              <mxPoint x="390" y="280" />
            </Array>
          </mxGeometry>
        </mxCell>
        <mxCell id="ABU-pIYIKaxsOQF3MxnG-8" style="edgeStyle=orthogonalEdgeStyle;rounded=0;orthogonalLoop=1;jettySize=auto;html=1;entryX=0.5;entryY=0;entryDx=0;entryDy=0;endArrow=open;endFill=0;endSize=12;" parent="1" source="ABU-pIYIKaxsOQF3MxnG-9" target="ABU-pIYIKaxsOQF3MxnG-6" edge="1">
          <mxGeometry relative="1" as="geometry" />
        </mxCell>
        <mxCell id="ABU-pIYIKaxsOQF3MxnG-9" value="Main" style="rounded=0;whiteSpace=wrap;html=1;" parent="1" vertex="1">
          <mxGeometry x="280" y="220" width="80" height="40" as="geometry" />
        </mxCell>
        <mxCell id="ABU-pIYIKaxsOQF3MxnG-10" style="edgeStyle=orthogonalEdgeStyle;rounded=0;orthogonalLoop=1;jettySize=auto;html=1;entryX=0.75;entryY=0;entryDx=0;entryDy=0;endArrow=open;endFill=0;endSize=12;fillColor=#f8cecc;strokeColor=default;exitX=0.25;exitY=1;exitDx=0;exitDy=0;" parent="1" source="ABU-pIYIKaxsOQF3MxnG-13" target="ABU-pIYIKaxsOQF3MxnG-2" edge="1">
          <mxGeometry relative="1" as="geometry">
            <Array as="points">
              <mxPoint x="500" y="280" />
              <mxPoint x="450" y="280" />
            </Array>
          </mxGeometry>
        </mxCell>
        <mxCell id="ABU-pIYIKaxsOQF3MxnG-11" value="works!" style="edgeLabel;html=1;align=center;verticalAlign=middle;resizable=0;points=[];" parent="ABU-pIYIKaxsOQF3MxnG-10" vertex="1" connectable="0">
          <mxGeometry x="-0.1411" relative="1" as="geometry">
            <mxPoint x="6" y="10" as="offset" />
          </mxGeometry>
        </mxCell>
        <mxCell id="ABU-pIYIKaxsOQF3MxnG-12" style="edgeStyle=orthogonalEdgeStyle;rounded=0;orthogonalLoop=1;jettySize=auto;html=1;entryX=0.5;entryY=0;entryDx=0;entryDy=0;endArrow=open;endFill=0;endSize=12;exitX=0.5;exitY=1;exitDx=0;exitDy=0;" parent="1" source="ABU-pIYIKaxsOQF3MxnG-13" target="ABU-pIYIKaxsOQF3MxnG-16" edge="1">
          <mxGeometry relative="1" as="geometry" />
        </mxCell>
        <mxCell id="ABU-pIYIKaxsOQF3MxnG-13" value="Tests" style="rounded=0;whiteSpace=wrap;html=1;" parent="1" vertex="1">
          <mxGeometry x="480" y="220" width="80" height="40" as="geometry" />
        </mxCell>
        <mxCell id="ABU-pIYIKaxsOQF3MxnG-14" value="PersonInfo" style="rounded=0;whiteSpace=wrap;html=1;" parent="1" vertex="1">
          <mxGeometry x="360" y="400" width="120" height="40" as="geometry" />
        </mxCell>
        <mxCell id="ABU-pIYIKaxsOQF3MxnG-15" style="edgeStyle=orthogonalEdgeStyle;rounded=0;orthogonalLoop=1;jettySize=auto;html=1;entryX=0.75;entryY=1;entryDx=0;entryDy=0;endSize=12;endArrow=block;endFill=0;exitX=0.25;exitY=0;exitDx=0;exitDy=0;" parent="1" source="ABU-pIYIKaxsOQF3MxnG-16" target="ABU-pIYIKaxsOQF3MxnG-14" edge="1">
          <mxGeometry relative="1" as="geometry" />
        </mxCell>
        <mxCell id="ABU-pIYIKaxsOQF3MxnG-16" value="ConstPersonInfo" style="rounded=0;whiteSpace=wrap;html=1;" parent="1" vertex="1">
          <mxGeometry x="440" y="480" width="160" height="40" as="geometry" />
        </mxCell>
      </root>
    </mxGraphModel>
  </diagram>
  <diagram id="vNGtUHF3fYDGnj6wzLQ1" name="NestedGreeting_solution">
    <mxGraphModel dx="1050" dy="575" grid="1" gridSize="10" guides="1" tooltips="1" connect="1" arrows="1" fold="1" page="1" pageScale="1" pageWidth="827" pageHeight="1169" math="0" shadow="0">
      <root>
        <mxCell id="0" />
        <mxCell id="1" parent="0" />
        <mxCell id="HFH1jsmylVNr-P3TVrVD-10" value="" style="rounded=0;whiteSpace=wrap;html=1;" vertex="1" parent="1">
          <mxGeometry x="330" y="370" width="120" height="40" as="geometry" />
        </mxCell>
        <mxCell id="HFH1jsmylVNr-P3TVrVD-1" value="&lt;div&gt;Greeting&lt;/div&gt;" style="rounded=0;whiteSpace=wrap;html=1;" vertex="1" parent="1">
          <mxGeometry x="320" y="240" width="120" height="40" as="geometry" />
        </mxCell>
        <mxCell id="HFH1jsmylVNr-P3TVrVD-3" style="edgeStyle=orthogonalEdgeStyle;rounded=0;orthogonalLoop=1;jettySize=auto;html=1;entryX=0.25;entryY=1;entryDx=0;entryDy=0;endSize=12;endArrow=open;endFill=0;exitX=0.25;exitY=0;exitDx=0;exitDy=0;startArrow=diamond;startFill=0;startSize=12;" edge="1" parent="1" source="HFH1jsmylVNr-P3TVrVD-2" target="HFH1jsmylVNr-P3TVrVD-1">
          <mxGeometry relative="1" as="geometry" />
        </mxCell>
        <mxCell id="HFH1jsmylVNr-P3TVrVD-4" style="edgeStyle=orthogonalEdgeStyle;rounded=0;orthogonalLoop=1;jettySize=auto;html=1;entryX=0.75;entryY=1;entryDx=0;entryDy=0;exitX=0.75;exitY=0;exitDx=0;exitDy=0;endSize=12;endArrow=block;endFill=0;" edge="1" parent="1" source="HFH1jsmylVNr-P3TVrVD-2" target="HFH1jsmylVNr-P3TVrVD-1">
          <mxGeometry relative="1" as="geometry" />
        </mxCell>
        <mxCell id="HFH1jsmylVNr-P3TVrVD-2" value="Concrete&lt;div&gt;Greeting&lt;/div&gt;" style="rounded=0;whiteSpace=wrap;html=1;" vertex="1" parent="1">
          <mxGeometry x="320" y="360" width="120" height="40" as="geometry" />
        </mxCell>
        <mxCell id="HFH1jsmylVNr-P3TVrVD-6" style="edgeStyle=orthogonalEdgeStyle;rounded=0;orthogonalLoop=1;jettySize=auto;html=1;entryX=0;entryY=0.5;entryDx=0;entryDy=0;endSize=12;endArrow=open;endFill=0;exitX=0.5;exitY=1;exitDx=0;exitDy=0;" edge="1" parent="1" source="HFH1jsmylVNr-P3TVrVD-5" target="HFH1jsmylVNr-P3TVrVD-2">
          <mxGeometry relative="1" as="geometry" />
        </mxCell>
        <mxCell id="HFH1jsmylVNr-P3TVrVD-9" style="edgeStyle=orthogonalEdgeStyle;rounded=0;orthogonalLoop=1;jettySize=auto;html=1;exitX=1;exitY=0.5;exitDx=0;exitDy=0;entryX=0;entryY=0.5;entryDx=0;entryDy=0;endSize=12;endArrow=open;endFill=0;" edge="1" parent="1" source="HFH1jsmylVNr-P3TVrVD-5" target="HFH1jsmylVNr-P3TVrVD-1">
          <mxGeometry relative="1" as="geometry" />
        </mxCell>
        <mxCell id="HFH1jsmylVNr-P3TVrVD-5" value="Client (Creator)" style="rounded=0;whiteSpace=wrap;html=1;" vertex="1" parent="1">
          <mxGeometry x="160" y="240" width="120" height="40" as="geometry" />
        </mxCell>
        <mxCell id="HFH1jsmylVNr-P3TVrVD-8" style="edgeStyle=orthogonalEdgeStyle;rounded=0;orthogonalLoop=1;jettySize=auto;html=1;entryX=1;entryY=0.5;entryDx=0;entryDy=0;endSize=12;endArrow=open;endFill=0;" edge="1" parent="1" source="HFH1jsmylVNr-P3TVrVD-7" target="HFH1jsmylVNr-P3TVrVD-1">
          <mxGeometry relative="1" as="geometry" />
        </mxCell>
        <mxCell id="HFH1jsmylVNr-P3TVrVD-7" value="Client (Consumer)" style="rounded=0;whiteSpace=wrap;html=1;" vertex="1" parent="1">
          <mxGeometry x="480" y="240" width="120" height="40" as="geometry" />
        </mxCell>
      </root>
    </mxGraphModel>
  </diagram>
</mxfile>
